# xmcd
#
# Track frame offsets:
#      150
#      13012
#      24807
#      43370
#      54678
#      70751
#      86543
#      100688
#      113251
#      127133
#      143664
# 
# Disc length: 2189 seconds
#
# Revision: 3
# Processed by: cddbd v1.4PL0 Copyright (c) Steve Scherf et al.
#
# Submitted via: FreeRIP 1.21
#
DISCID=89088b0b
DTITLE=Merle Haggard - Back To The Barrooms
DYEAR=1980
DGENRE=Country
TTITLE0=Merle Haggard-Misery And Gin-'80-Back To The Barrooms
TTITLE1=Merle Haggard-Back To The Barrooms Again-'80-Back To The Barrooms
TTITLE2=Merle Haggard-Make-Up And Faded Blue Jeans-'80-Back To The Barrooms
TTITLE3=Merle Haggard-Ever-Changing Woman-'80-Back To The Barrooms
TTITLE4=Merle Haggard-Easy Come, Easy Go-'80-Back To The Barrooms
TTITLE5=Merle Haggard-I Don't Want To Sober Up Tonight-'80-Back To The Barrooms
TTITLE6=Merle Haggard-Can't Break The Habit-'80-Back To The Barrooms
TTITLE7=Merle Haggard-Our Paths May Never Cross-'80-Back To The Barrooms
TTITLE8=Merle Haggard-I Don't Have Any More Love Songs-'80-Back To The Barrooms
TTITLE9=Merle Haggard-Leonard (for Tommy Collins/Leonard Sipes)-'80-Back To The Barrooms
TTITLE10=Merle Haggard-I Think I'll Just Stay Here And Drink-'80-Back To The Barrooms 
EXTD=
EXTT0=
EXTT1=
EXTT2=
EXTT3=
EXTT4=
EXTT5=
EXTT6=
EXTT7=
EXTT8=
EXTT9=
EXTT10=
PLAYORDER=
